<svg width="31" height="31" viewBox="0 0 31 31" fill="none" xmlns="http://www.w3.org/2000/svg">
<rect x="0.5" y="0.671875" width="30" height="30" rx="5" fill="#0099FF"/>
<path d="M10 21.6719V18.8385L18.8 10.0552C18.9333 9.93299 19.0807 9.83854 19.242 9.77188C19.4033 9.70521 19.5727 9.67188 19.75 9.67188C19.9278 9.67188 20.1 9.70521 20.2667 9.77188C20.4333 9.83854 20.5778 9.93854 20.7 10.0719L21.6167 11.0052C21.75 11.1274 21.8473 11.2719 21.9087 11.4385C21.97 11.6052 22.0004 11.7719 22 11.9385C22 12.1163 21.9696 12.2859 21.9087 12.4472C21.8478 12.6085 21.7504 12.7557 21.6167 12.8885L12.8333 21.6719H10ZM19.7333 12.8719L20.6667 11.9385L19.7333 11.0052L18.8 11.9385L19.7333 12.8719Z" fill="white"/>
</svg>
