<svg width="31" height="30" viewBox="0 0 31 30" fill="none" xmlns="http://www.w3.org/2000/svg">
<rect x="0.667725" width="30" height="30" rx="5" fill="#27AE60"/>
<path d="M16.6677 22C16.6677 18.69 19.3577 16 22.6677 16C23.7677 16 24.7877 16.3 25.6677 16.81V9C25.6677 8.46957 25.457 7.96086 25.0819 7.58579C24.7069 7.21071 24.1982 7 23.6677 7H7.66772C6.55772 7 5.66772 7.89 5.66772 9V21C5.66772 21.5304 5.87844 22.0391 6.25351 22.4142C6.62858 22.7893 7.13729 23 7.66772 23H16.7577C16.7077 22.67 16.6677 22.34 16.6677 22ZM7.66772 11V9L15.6677 14L23.6677 9V11L15.6677 16L7.66772 11ZM23.6677 25V23H19.6677V21H23.6677V19L26.6677 22L23.6677 25Z" fill="white"/>
</svg>
