<svg width="30" height="30" viewBox="0 0 30 30" fill="none" xmlns="http://www.w3.org/2000/svg">
<rect width="30" height="30" rx="5" fill="#0099FF"/>
<path d="M25.1318 16.501C24.7176 18.5238 23.6879 20.369 22.1839 21.7837C20.6799 23.1984 18.7752 24.1133 16.7308 24.403V22.378C18.2406 22.1087 19.6414 21.4117 20.7667 20.3697C21.892 19.3278 22.6945 17.9847 23.0788 16.5L25.1318 16.501ZM7.58384 16.501C7.96389 17.9687 8.75267 19.2984 9.8585 20.3355C10.9643 21.3727 12.3418 22.0747 13.8308 22.36V24.388C11.8068 24.0799 9.92598 23.1586 8.44186 21.7484C6.95774 20.3381 5.94173 18.5067 5.53084 16.501H7.58384ZM21.3308 13.5V15.5H18.3308C17.8264 15.5001 17.3407 15.6908 16.9709 16.0338C16.6012 16.3769 16.3747 16.847 16.3368 17.35L16.3308 17.5V20.5H14.3308V17.5C14.331 16.9954 14.1404 16.5094 13.7973 16.1395C13.4542 15.7695 12.984 15.5428 12.4808 15.505L12.3308 15.5H9.33184V13.5H21.3308ZM15.3308 4.5C20.5168 4.5 24.7808 8.447 25.2818 13.5H23.2698C23.0276 11.5653 22.0872 9.78562 20.6253 8.49537C19.1634 7.20513 17.2807 6.49312 15.3308 6.49312C13.381 6.49312 11.4983 7.20513 10.0364 8.49537C8.57452 9.78562 7.6341 11.5653 7.39184 13.5H5.38184C5.88384 8.447 10.1468 4.5 15.3318 4.5H15.3308Z" fill="white"/>
</svg>
