<svg width="22" height="22" viewBox="0 0 22 22" fill="none" xmlns="http://www.w3.org/2000/svg">
<rect width="22" height="22" rx="5" fill="#6B7A85"/>
<path d="M17.1833 18C15.563 18 13.962 17.6469 12.3806 16.9407C10.7991 16.2344 9.36019 15.2329 8.06389 13.9361C6.76759 12.6398 5.76633 11.2009 5.06011 9.61944C4.35389 8.03796 4.00052 6.43704 4 4.81667C4 4.58333 4.07778 4.38889 4.23333 4.23333C4.38889 4.07778 4.58333 4 4.81667 4H7.96667C8.14815 4 8.31019 4.0617 8.45278 4.18511C8.59537 4.30852 8.67963 4.45422 8.70556 4.62222L9.21111 7.34444C9.23704 7.55185 9.23056 7.72685 9.19167 7.86944C9.15278 8.01204 9.08148 8.13519 8.97778 8.23889L7.09167 10.1444C7.35093 10.6241 7.65867 11.0874 8.01489 11.5343C8.37111 11.9813 8.76337 12.4124 9.19167 12.8278C9.59352 13.2296 10.0148 13.6024 10.4556 13.9462C10.8963 14.29 11.363 14.6042 11.8556 14.8889L13.6833 13.0611C13.8 12.9444 13.9524 12.8571 14.1407 12.799C14.3289 12.7409 14.5135 12.7246 14.6944 12.75L17.3778 13.2944C17.5593 13.3463 17.7083 13.4404 17.825 13.5768C17.9417 13.7131 18 13.8653 18 14.0333V17.1833C18 17.4167 17.9222 17.6111 17.7667 17.7667C17.6111 17.9222 17.4167 18 17.1833 18Z" fill="white"/>
</svg>
