<svg width="32" height="32" viewBox="0 0 32 32" fill="none" xmlns="http://www.w3.org/2000/svg">
<path d="M5.33301 21.3333L11.4477 15.2187C11.9477 14.7188 12.6259 14.4379 13.333 14.4379C14.0401 14.4379 14.7183 14.7188 15.2183 15.2187L21.333 21.3333M18.6663 18.6667L20.781 16.552C21.2811 16.0521 21.9592 15.7712 22.6663 15.7712C23.3734 15.7712 24.0516 16.0521 24.5517 16.552L26.6663 18.6667M18.6663 10.6667H18.6797M7.99967 26.6667H23.9997C24.7069 26.6667 25.3852 26.3857 25.8853 25.8856C26.3854 25.3855 26.6663 24.7073 26.6663 24V8.00001C26.6663 7.29277 26.3854 6.61449 25.8853 6.11439C25.3852 5.61429 24.7069 5.33334 23.9997 5.33334H7.99967C7.29243 5.33334 6.61415 5.61429 6.11406 6.11439C5.61396 6.61449 5.33301 7.29277 5.33301 8.00001V24C5.33301 24.7073 5.61396 25.3855 6.11406 25.8856C6.61415 26.3857 7.29243 26.6667 7.99967 26.6667Z" stroke="#3170FE" stroke-width="2" stroke-linecap="round" stroke-linejoin="round"/>
</svg>
