<svg width="16" height="17" viewBox="0 0 16 17" fill="none" xmlns="http://www.w3.org/2000/svg">
<path fill-rule="evenodd" clip-rule="evenodd" d="M13.0003 6.87334C13.0223 9.63534 10.721 12.1887 7.96033 12.1667C5.19833 12.1447 3.023 9.55467 3.00033 6.79334C2.99273 6.13987 3.11584 5.49148 3.36241 4.88628C3.60899 4.28107 3.97405 3.73126 4.43615 3.26916C4.89825 2.80706 5.44806 2.442 6.05327 2.19542C6.65848 1.94885 7.30687 1.82574 7.96033 1.83334C10.721 1.85601 12.9777 4.11267 13.0003 6.87334ZM8.33766 4.00001C8.20506 3.99894 8.07746 4.05061 7.98294 4.14362C7.88842 4.23664 7.83473 4.3634 7.83366 4.49601C7.8326 4.62861 7.88426 4.75621 7.97728 4.85073C8.0703 4.94525 8.19706 4.99894 8.32966 5.00001C8.72699 5.00502 9.10664 5.16508 9.38761 5.44606C9.66859 5.72703 9.82865 6.10668 9.83366 6.50401C9.83472 6.63661 9.88842 6.76337 9.98294 6.85639C10.0775 6.94941 10.2051 7.00107 10.3377 7.00001C10.4703 6.99895 10.597 6.94525 10.69 6.85073C10.7831 6.75621 10.8347 6.62861 10.8337 6.49601C10.8266 5.83623 10.5613 5.20549 10.0947 4.73893C9.62818 4.27237 8.99744 4.00711 8.33766 4.00001Z" fill="black"/>
<path d="M9.4446 12.6428C9.66593 13.3514 9.20726 14.0641 8.49993 14.2081V15.1668C8.49993 15.2994 8.44725 15.4266 8.35348 15.5203C8.25971 15.6141 8.13254 15.6668 7.99993 15.6668C7.86732 15.6668 7.74014 15.6141 7.64638 15.5203C7.55261 15.4266 7.49993 15.2994 7.49993 15.1668V14.2081C6.79326 14.0641 6.33326 13.3514 6.55526 12.6428L6.55993 12.6288C7.50061 12.9016 8.4995 12.9011 9.43993 12.6274L9.4446 12.6428Z" fill="black"/>
</svg>
