<svg width="22" height="22" viewBox="0 0 22 22" fill="none" xmlns="http://www.w3.org/2000/svg">
<rect width="22" height="22" rx="5" fill="#3170FE"/>
<path d="M11.8571 15.8333C11.8571 13.4428 13.7786 11.5 16.1429 11.5C16.9286 11.5 17.6571 11.7167 18.2857 12.085V6.44444C18.2857 6.06135 18.1352 5.69395 17.8673 5.42307C17.5994 5.15218 17.236 5 16.8571 5H5.42857C4.63571 5 4 5.64278 4 6.44444V15.1111C4 15.4942 4.15051 15.8616 4.41842 16.1325C4.68633 16.4034 5.04969 16.5556 5.42857 16.5556H11.9214C11.8857 16.3172 11.8571 16.0789 11.8571 15.8333ZM5.42857 7.88889V6.44444L11.1429 10.0556L16.8571 6.44444V7.88889L11.1429 11.5L5.42857 7.88889ZM16.8571 18V16.5556H14V15.1111H16.8571V13.6667L19 15.8333L16.8571 18Z" fill="white"/>
</svg>
