      <svg width="179" height="44" viewBox="0 0 179 44" fill="none" xmlns="http://www.w3.org/2000/svg">
                    <rect width="179" height="44" rx="5" fill="#3170FE"/>
                    <path d="M19.1122 27L16.2884 16.8182H17.9041L19.8878 24.7031H19.9822L22.0455 16.8182H23.6463L25.7095 24.7081H25.804L27.7827 16.8182H29.4034L26.5746 27H25.0284L22.8857 19.3736H22.8061L20.6634 27H19.1122ZM30.6848 27V19.3636H32.1713V27H30.6848ZM31.4355 18.1854C31.177 18.1854 30.955 18.0992 30.7694 17.9268C30.5871 17.7512 30.4959 17.5424 30.4959 17.3004C30.4959 17.0552 30.5871 16.8464 30.7694 16.674C30.955 16.4983 31.177 16.4105 31.4355 16.4105C31.6941 16.4105 31.9145 16.4983 32.0968 16.674C32.2824 16.8464 32.3752 17.0552 32.3752 17.3004C32.3752 17.5424 32.2824 17.7512 32.0968 17.9268C31.9145 18.0992 31.6941 18.1854 31.4355 18.1854ZM37.7358 19.3636V20.5568H33.5646V19.3636H37.7358ZM34.6832 17.5341H36.1697V24.7578C36.1697 25.0462 36.2128 25.2633 36.299 25.4091C36.3852 25.5516 36.4962 25.6494 36.6321 25.7024C36.7713 25.7521 36.9221 25.777 37.0845 25.777C37.2038 25.777 37.3082 25.7687 37.3977 25.7521C37.4872 25.7356 37.5568 25.7223 37.6065 25.7124L37.875 26.9403C37.7888 26.9735 37.6662 27.0066 37.5071 27.0398C37.348 27.0762 37.1491 27.0961 36.9105 27.0994C36.5194 27.1061 36.1548 27.0365 35.8168 26.8906C35.4787 26.7448 35.2053 26.5194 34.9964 26.2145C34.7876 25.9096 34.6832 25.5268 34.6832 25.0661V17.5341ZM41.0307 22.4659V27H39.5442V16.8182H41.0108V20.6065H41.1053C41.2843 20.1955 41.5577 19.8691 41.9256 19.6271C42.2935 19.3852 42.7741 19.2642 43.3674 19.2642C43.891 19.2642 44.3484 19.3719 44.7395 19.5874C45.1339 19.8028 45.4389 20.1243 45.6543 20.5518C45.873 20.9761 45.9824 21.5064 45.9824 22.1428V27H44.4959V22.3217C44.4959 21.7616 44.3517 21.3274 44.0634 21.0192C43.775 20.7076 43.374 20.5518 42.8603 20.5518C42.5089 20.5518 42.1941 20.6264 41.9157 20.7756C41.6406 20.9247 41.4235 21.1435 41.2644 21.4318C41.1086 21.7169 41.0307 22.0616 41.0307 22.4659ZM50.8248 27.1491C50.2083 27.1491 49.6581 26.9917 49.1742 26.6768C48.6936 26.3587 48.3158 25.9062 48.0407 25.3196C47.7689 24.7296 47.633 24.022 47.633 23.1967C47.633 22.3714 47.7705 21.6655 48.0456 21.0788C48.324 20.4922 48.7052 20.0431 49.1891 19.7315C49.673 19.42 50.2215 19.2642 50.8347 19.2642C51.3087 19.2642 51.6898 19.3438 51.9782 19.5028C52.2698 19.6586 52.4952 19.8409 52.6543 20.0497C52.8167 20.2585 52.9426 20.4425 53.0321 20.6016H53.1216V16.8182H54.6081V27H53.1564V25.8118H53.0321C52.9426 25.9742 52.8134 26.1598 52.6444 26.3686C52.4786 26.5774 52.2499 26.7597 51.9583 26.9155C51.6666 27.0713 51.2888 27.1491 50.8248 27.1491ZM51.1529 25.8814C51.5804 25.8814 51.9417 25.7687 52.2367 25.5433C52.535 25.3146 52.7604 24.9981 52.9128 24.5938C53.0686 24.1894 53.1465 23.7187 53.1465 23.1818C53.1465 22.6515 53.0703 22.1875 52.9178 21.7898C52.7653 21.392 52.5416 21.0821 52.2466 20.8601C51.9516 20.638 51.5871 20.527 51.1529 20.527C50.7054 20.527 50.3326 20.643 50.0343 20.875C49.736 21.107 49.5106 21.4235 49.3581 21.8246C49.209 22.2256 49.1344 22.678 49.1344 23.1818C49.1344 23.6922 49.2106 24.1513 49.3631 24.5589C49.5156 24.9666 49.7409 25.2898 50.0392 25.5284C50.3408 25.7637 50.7121 25.8814 51.1529 25.8814ZM56.7298 27V19.3636H58.1665V20.5767H58.2461C58.3853 20.1657 58.6306 19.8426 58.9819 19.6072C59.3365 19.3686 59.7376 19.2493 60.185 19.2493C60.2778 19.2493 60.3872 19.2526 60.5131 19.2592C60.6424 19.2659 60.7435 19.2741 60.8164 19.2841V20.706C60.7567 20.6894 60.6507 20.6712 60.4982 20.6513C60.3458 20.6281 60.1933 20.6165 60.0408 20.6165C59.6895 20.6165 59.3763 20.6911 59.1012 20.8402C58.8294 20.986 58.614 21.1899 58.4549 21.4517C58.2958 21.7102 58.2163 22.0052 58.2163 22.3366V27H56.7298ZM64.2567 27.169C63.7728 27.169 63.3353 27.0795 62.9442 26.9006C62.5531 26.7183 62.2433 26.4548 62.0146 26.1101C61.7892 25.7654 61.6765 25.3428 61.6765 24.8423C61.6765 24.4115 61.7594 24.0568 61.9251 23.7784C62.0908 23.5 62.3145 23.2796 62.5962 23.1172C62.878 22.9548 63.1928 22.8321 63.5408 22.7493C63.8888 22.6664 64.2435 22.6035 64.6048 22.5604C65.0621 22.5073 65.4334 22.4643 65.7184 22.4311C66.0034 22.3946 66.2106 22.3366 66.3398 22.2571C66.4691 22.1776 66.5337 22.0483 66.5337 21.8693V21.8345C66.5337 21.4003 66.4111 21.0639 66.1658 20.8253C65.9239 20.5866 65.5626 20.4673 65.082 20.4673C64.5816 20.4673 64.1871 20.5784 63.8988 20.8004C63.6138 21.0192 63.4165 21.2628 63.3072 21.5312L61.9102 21.2131C62.0759 20.7491 62.3178 20.3745 62.636 20.0895C62.9575 19.8011 63.3271 19.5923 63.7447 19.4631C64.1623 19.3305 64.6014 19.2642 65.0621 19.2642C65.3671 19.2642 65.6902 19.3007 66.0316 19.3736C66.3763 19.4432 66.6978 19.5724 66.9961 19.7614C67.2977 19.9503 67.5446 20.2204 67.7369 20.5717C67.9291 20.9197 68.0252 21.3722 68.0252 21.929V27H66.5735V25.956H66.5138C66.4177 26.1482 66.2736 26.3371 66.0813 26.5227C65.8891 26.7083 65.6422 26.8625 65.3406 26.9851C65.0389 27.1077 64.6777 27.169 64.2567 27.169ZM64.5799 25.9759C64.9909 25.9759 65.3422 25.8946 65.6339 25.7322C65.9289 25.5698 66.1526 25.3577 66.305 25.0959C66.4608 24.8307 66.5387 24.5473 66.5387 24.2457V23.2614C66.4857 23.3144 66.3829 23.3641 66.2305 23.4105C66.0813 23.4536 65.9106 23.4917 65.7184 23.5249C65.5262 23.5547 65.3389 23.5829 65.1566 23.6094C64.9743 23.6326 64.8219 23.6525 64.6992 23.669C64.4109 23.7055 64.1474 23.7668 63.9087 23.853C63.6734 23.9392 63.4845 24.0634 63.342 24.2259C63.2028 24.3849 63.1332 24.5971 63.1332 24.8622C63.1332 25.2301 63.2691 25.5085 63.5408 25.6974C63.8126 25.883 64.159 25.9759 64.5799 25.9759ZM71.6607 27L69.4135 19.3636H70.9498L72.4462 24.9716H72.5208L74.0222 19.3636H75.5584L77.0499 24.9467H77.1245L78.611 19.3636H80.1472L77.905 27H76.3887L74.8375 21.4865H74.7232L73.1721 27H71.6607ZM86.2424 27H84.6117L88.2757 16.8182H90.0506L93.7147 27H92.084L89.2054 18.6676H89.1259L86.2424 27ZM86.5158 23.0128H91.8056V24.3054H86.5158V23.0128ZM95.0657 27V19.3636H96.4925V20.6065H96.587C96.7461 20.1856 97.0063 19.8575 97.3675 19.6222C97.7288 19.3835 98.1613 19.2642 98.6651 19.2642C99.1755 19.2642 99.6031 19.3835 99.9478 19.6222C100.296 19.8608 100.553 20.1889 100.718 20.6065H100.798C100.98 20.1989 101.27 19.8741 101.668 19.6321C102.066 19.3868 102.54 19.2642 103.09 19.2642C103.783 19.2642 104.348 19.4813 104.785 19.9155C105.226 20.3497 105.446 21.0043 105.446 21.8793V27H103.96V22.0185C103.96 21.5014 103.819 21.1269 103.537 20.8949C103.256 20.6629 102.919 20.5469 102.528 20.5469C102.044 20.5469 101.668 20.696 101.4 20.9943C101.131 21.2893 100.997 21.6688 100.997 22.1328V27H99.5153V21.924C99.5153 21.5097 99.386 21.1766 99.1275 20.9247C98.869 20.6728 98.5326 20.5469 98.1183 20.5469C97.8365 20.5469 97.5763 20.6214 97.3377 20.7706C97.1024 20.9164 96.9118 21.1203 96.766 21.3821C96.6235 21.6439 96.5522 21.9472 96.5522 22.2919V27H95.0657ZM110.655 27.1541C109.939 27.1541 109.315 26.9901 108.781 26.6619C108.247 26.3338 107.833 25.8748 107.538 25.2848C107.243 24.6948 107.096 24.0054 107.096 23.2166C107.096 22.4245 107.243 21.7318 107.538 21.1385C107.833 20.5452 108.247 20.0845 108.781 19.7564C109.315 19.4283 109.939 19.2642 110.655 19.2642C111.371 19.2642 111.996 19.4283 112.53 19.7564C113.063 20.0845 113.478 20.5452 113.773 21.1385C114.068 21.7318 114.215 22.4245 114.215 23.2166C114.215 24.0054 114.068 24.6948 113.773 25.2848C113.478 25.8748 113.063 26.3338 112.53 26.6619C111.996 26.9901 111.371 27.1541 110.655 27.1541ZM110.66 25.9062C111.124 25.9062 111.509 25.7836 111.814 25.5384C112.119 25.2931 112.344 24.9666 112.49 24.5589C112.639 24.1513 112.714 23.7022 112.714 23.2116C112.714 22.7244 112.639 22.277 112.49 21.8693C112.344 21.4583 112.119 21.1286 111.814 20.88C111.509 20.6314 111.124 20.5071 110.66 20.5071C110.193 20.5071 109.805 20.6314 109.497 20.88C109.192 21.1286 108.965 21.4583 108.816 21.8693C108.67 22.277 108.597 22.7244 108.597 23.2116C108.597 23.7022 108.67 24.1513 108.816 24.5589C108.965 24.9666 109.192 25.2931 109.497 25.5384C109.805 25.7836 110.193 25.9062 110.66 25.9062ZM120.712 23.8331V19.3636H122.203V27H120.741V25.6776H120.662C120.486 26.0852 120.205 26.425 119.817 26.6967C119.432 26.9652 118.953 27.0994 118.38 27.0994C117.889 27.0994 117.455 26.9917 117.077 26.7763C116.703 26.5575 116.408 26.2344 116.192 25.8068C115.98 25.3793 115.874 24.8506 115.874 24.2209V19.3636H117.361V24.0419C117.361 24.5623 117.505 24.9766 117.793 25.2848C118.082 25.593 118.456 25.7472 118.917 25.7472C119.195 25.7472 119.472 25.6776 119.747 25.5384C120.026 25.3991 120.256 25.1887 120.438 24.907C120.624 24.6252 120.715 24.2673 120.712 23.8331ZM125.687 22.4659V27H124.2V19.3636H125.627V20.6065H125.722C125.897 20.2022 126.173 19.8774 126.547 19.6321C126.925 19.3868 127.401 19.2642 127.974 19.2642C128.494 19.2642 128.95 19.3736 129.341 19.5923C129.732 19.8078 130.035 20.1293 130.251 20.5568C130.466 20.9844 130.574 21.513 130.574 22.1428V27H129.088V22.3217C129.088 21.7682 128.943 21.3357 128.655 21.0241C128.367 20.7093 127.971 20.5518 127.467 20.5518C127.122 20.5518 126.816 20.6264 126.547 20.7756C126.282 20.9247 126.071 21.1435 125.916 21.4318C125.763 21.7169 125.687 22.0616 125.687 22.4659ZM136.132 19.3636V20.5568H131.961V19.3636H136.132ZM133.08 17.5341H134.566V24.7578C134.566 25.0462 134.609 25.2633 134.695 25.4091C134.782 25.5516 134.893 25.6494 135.029 25.7024C135.168 25.7521 135.319 25.777 135.481 25.777C135.6 25.777 135.705 25.7687 135.794 25.7521C135.884 25.7356 135.953 25.7223 136.003 25.7124L136.271 26.9403C136.185 26.9735 136.063 27.0066 135.904 27.0398C135.744 27.0762 135.546 27.0961 135.307 27.0994C134.916 27.1061 134.551 27.0365 134.213 26.8906C133.875 26.7448 133.602 26.5194 133.393 26.2145C133.184 25.9096 133.08 25.5268 133.08 25.0661V17.5341Z" fill="white"/>
                    <g clip-path="url(#clip0_1870_1353)">
                    <path d="M155 14L157 17H156V19H154V17H153L155 14ZM162 21V29H148V21H162ZM163 20H147V30H163V20Z" fill="white"/>
                    <path d="M155 22C155.394 22 155.784 22.0776 156.148 22.2284C156.512 22.3791 156.843 22.6001 157.121 22.8787C157.4 23.1573 157.621 23.488 157.772 23.8519C157.922 24.2159 158 24.606 158 25C158 25.394 157.922 25.7841 157.772 26.1481C157.621 26.512 157.4 26.8427 157.121 27.1213C156.843 27.3999 156.512 27.6209 156.148 27.7716C155.784 27.9224 155.394 28 155 28H160V27H161V23H160V22H155ZM152 25C152 24.2044 152.316 23.4413 152.879 22.8787C153.441 22.3161 154.204 22 155 22H150V23H149V27H150V28H155C154.204 28 153.441 27.6839 152.879 27.1213C152.316 26.5587 152 25.7956 152 25Z" fill="white"/>
                    </g>
                    <defs>
                    <clipPath id="clip0_1870_1353">
                    <rect width="16" height="16" fill="white" transform="translate(147 14)"/>
                    </clipPath>
                    </defs>
                    </svg>