<svg width="30" height="30" viewBox="0 0 30 30" fill="none" xmlns="http://www.w3.org/2000/svg">
<rect width="30" height="30" rx="5" fill="#B87451"/>
<path d="M11.0951 20L14.6951 16.4L18.2951 20L19.6951 18.6L16.0951 15L19.6951 11.4L18.2951 10L14.6951 13.6L11.0951 10L9.69507 11.4L13.2951 15L9.69507 18.6L11.0951 20ZM14.6951 25C13.3117 25 12.0117 24.7373 10.7951 24.212C9.5784 23.6867 8.52007 22.9743 7.62007 22.075C6.72007 21.175 6.00774 20.1167 5.48307 18.9C4.9584 17.6833 4.69574 16.3833 4.69507 15C4.69507 13.6167 4.95774 12.3167 5.48307 11.1C6.0084 9.88333 6.72074 8.825 7.62007 7.925C8.52007 7.025 9.5784 6.31267 10.7951 5.788C12.0117 5.26333 13.3117 5.00067 14.6951 5C16.0784 5 17.3784 5.26267 18.5951 5.788C19.8117 6.31333 20.8701 7.02567 21.7701 7.925C22.6701 8.825 23.3827 9.88333 23.9081 11.1C24.4334 12.3167 24.6957 13.6167 24.6951 15C24.6951 16.3833 24.4324 17.6833 23.9071 18.9C23.3817 20.1167 22.6694 21.175 21.7701 22.075C20.8701 22.975 19.8117 23.6877 18.5951 24.213C17.3784 24.7383 16.0784 25.0007 14.6951 25Z" fill="white"/>
</svg>
